<svg version="1.1" id="Layer_1" xmlns="http://www.w3.org/2000/svg" xmlns:xlink="http://www.w3.org/1999/xlink" x="0px" y="0px"
	 width="100%" viewBox="0 0 800 645" enable-background="new 0 0 800 645" xml:space="preserve">
<path fill="#EAFFF0" opacity="1.000000" stroke="none" 
	d="
M317.000000,1.000000 
	C375.020905,1.000000 433.041779,1.000000 491.531860,1.444747 
	C493.281952,2.593016 494.554108,3.888050 495.845062,3.907120 
	C506.839600,4.069529 517.837646,3.985997 528.834473,4.018884 
	C530.129395,4.022756 532.503601,4.120907 532.553772,4.451771 
	C533.168701,8.509048 536.242493,6.799692 538.295166,6.936325 
	C541.778748,7.168211 545.289307,6.971990 548.787720,7.018520 
	C549.753479,7.031365 551.513611,7.134644 551.560791,7.419666 
	C552.271912,11.715395 555.568787,9.532819 557.747437,9.984555 
	C562.887512,11.050350 568.045776,12.027746 573.190369,13.072256 
	C573.469299,13.128887 573.910828,13.478874 573.904968,13.681597 
	C573.801270,17.280125 576.525879,15.836399 578.155212,15.947489 
	C580.947083,16.137842 583.761353,16.000067 586.696167,16.000067 
	C586.937134,17.481932 587.134033,18.692623 587.294312,19.678511 
	C590.762207,20.009014 594.062500,19.716335 596.864197,20.761040 
	C599.677063,21.809914 601.780884,25.147947 604.575745,25.767769 
	C608.910828,26.729195 612.449097,30.980589 617.483704,29.051216 
	C617.832031,28.917730 618.492188,29.201015 618.828247,29.495121 
	C621.666504,31.978670 627.726440,35.040810 630.299561,36.055714 
	C632.534729,38.402061 635.100220,40.282085 637.795044,41.953487 
	C638.671021,42.496803 640.035828,42.248940 640.916565,42.788319 
	C643.567261,44.411533 646.094849,47.663559 648.660767,47.654022 
	C652.278137,47.640572 653.938477,50.058380 656.463745,51.288086 
	C658.387878,52.225033 659.985596,53.832157 662.583069,55.782940 
	C663.931335,57.001080 666.042542,60.506809 668.378906,60.663956 
	C672.397827,60.934269 673.573242,63.923031 676.068787,65.635902 
	C679.818909,68.209923 681.203186,74.418930 686.409729,73.201103 
	C700.948303,87.580223 714.956970,101.435226 729.671448,115.988342 
	C728.348145,121.245193 734.563843,123.149437 737.699890,127.019829 
	C739.172485,128.837265 741.680176,130.657990 741.781555,132.579407 
	C742.038086,137.443695 744.950867,139.173431 748.236206,140.897491 
	C749.183350,143.109909 750.853699,144.839050 751.881592,146.890152 
	C753.069336,149.260300 756.393433,150.770737 755.057861,154.282272 
	C754.902222,154.691437 755.423584,155.425812 755.745422,155.937576 
	C757.476379,158.690094 760.247681,161.244339 760.763977,164.198380 
	C761.549011,168.690125 764.536743,170.009354 767.735901,171.553574 
	C768.002747,173.672455 767.549988,176.332367 768.669861,177.750214 
	C771.568359,181.420120 773.706299,185.035095 774.159973,189.899368 
	C774.472107,193.246414 775.634033,196.933121 777.589417,199.611481 
	C780.652039,203.806488 783.412170,207.806076 783.008484,213.251541 
	C782.949707,214.044357 783.000305,214.845291 783.000305,215.649826 
	C784.569702,215.957108 785.772583,216.192627 787.075989,216.447845 
	C787.075989,219.237701 786.211426,223.420990 787.221497,223.937332 
	C792.356750,226.562500 789.051086,230.857788 789.981140,234.191544 
	C790.320435,235.407761 790.417358,237.763931 790.670593,237.770264 
	C794.244141,237.859619 792.788147,240.500519 792.960876,242.146698 
	C793.218384,244.601593 792.500854,248.872040 793.442444,249.247208 
	C797.661743,250.928436 795.668823,254.121109 795.922729,256.605194 
	C796.242981,259.738251 795.956726,262.929810 796.026611,266.094086 
	C796.047546,267.041077 796.371094,268.799713 796.578552,268.803162 
	C800.519531,268.867554 798.877014,271.843842 798.929138,273.553802 
	C799.111816,279.546539 798.894836,285.551758 799.090454,291.543671 
	C799.128662,292.715332 800.333313,293.848877 801.000000,295.000000 
	C801.000000,312.687561 801.000000,330.375122 800.558777,348.541382 
	C799.821960,349.135498 799.285828,349.218323 799.265076,349.371063 
	C797.981934,358.820190 800.826965,368.554779 796.197937,377.884796 
	C793.780457,382.757446 798.089233,388.941528 793.361633,394.522797 
	C790.842285,397.496979 794.909668,404.083893 790.007568,407.693848 
	C792.257324,414.876129 785.611572,420.567780 787.063110,427.692596 
	C785.526611,427.935577 784.314148,428.127319 783.318726,428.284729 
	C782.991638,431.757812 783.289917,435.060760 782.245605,437.863434 
	C781.197937,440.674988 777.859802,442.773682 777.231506,445.568329 
	C776.258240,449.897858 772.027954,453.442688 773.949280,458.474976 
	C774.082764,458.824615 773.802490,459.484222 773.509338,459.820923 
	C771.021729,462.678528 767.953613,468.752045 766.969482,471.254700 
	C764.636658,473.487427 762.736511,476.070862 761.047241,478.785522 
	C760.502441,479.660919 760.761475,481.034393 760.221191,481.915314 
	C758.596741,484.563965 755.252380,487.146484 755.358643,489.636200 
	C755.517883,493.367859 752.906494,494.910400 751.713806,497.454559 
	C750.808899,499.384888 749.173035,500.972565 747.154236,503.652893 
	C746.005432,504.921631 742.497559,507.028961 742.336182,509.367249 
	C742.059448,513.376099 739.117615,514.582642 737.374939,517.067810 
	C734.765930,520.788635 728.590332,522.192078 730.097229,528.672913 
	C728.764954,528.864197 727.262329,528.642456 726.681458,529.271667 
	C725.918823,530.097595 726.258667,531.983215 725.474731,532.741089 
	C719.099365,538.904053 712.540833,544.877075 706.119812,550.993713 
	C704.945190,552.112671 704.268433,553.741577 703.142334,554.926514 
	C700.484497,557.723145 697.894409,560.641785 694.907471,563.053528 
	C691.126892,566.106140 686.979919,568.704895 681.363892,572.639343 
	C679.343140,574.931152 675.859680,578.881958 672.376221,582.832703 
	C665.319824,580.460938 664.006287,591.205017 657.317688,589.091675 
	C657.009583,590.562439 657.147522,592.240112 656.490234,592.653503 
	C652.857971,594.937988 649.132812,597.133667 645.239624,598.925232 
	C642.255798,600.298279 638.967712,601.004272 635.838867,602.076538 
	C635.488098,602.196838 635.362671,602.867798 635.014160,603.118713 
	C632.131409,605.194092 629.220764,607.230713 626.318542,609.279053 
	C625.956299,608.917175 625.593994,608.555298 625.231750,608.193420 
	C625.077576,609.411133 624.923401,610.628906 624.827637,611.385559 
	C619.528748,612.418701 615.440308,616.632874 610.029907,615.061462 
	C609.799316,614.994507 609.425598,615.288635 609.164795,615.478149 
	C606.651917,617.304321 604.358887,620.182922 601.594910,620.741577 
	C597.223389,621.625061 593.733765,626.025269 588.687317,624.041870 
	C588.334045,623.903015 587.402222,624.222412 587.374695,624.418091 
	C586.764709,628.758179 583.414001,626.641052 581.236938,626.932678 
	C578.978149,627.235229 576.647339,627.000000 574.351013,627.000000 
	C574.042236,628.570679 573.805725,629.773560 573.639038,630.621338 
	C570.503296,631.021729 565.699890,630.822205 565.438354,631.816833 
	C564.557861,635.165649 562.427429,633.783875 560.807983,633.951904 
	C558.024536,634.240784 553.290649,633.349548 552.760132,634.506165 
	C551.007874,638.326599 548.221130,636.764587 545.854797,636.938477 
	C542.540405,637.182007 539.193848,636.955811 535.863159,637.028381 
	C534.928955,637.048767 533.198486,637.389526 533.191772,637.622437 
	C533.078247,641.564392 530.092468,639.903931 528.405212,639.926392 
	C517.577332,640.070557 506.746338,639.964355 495.917175,640.046875 
	C494.620911,640.056763 493.275665,640.581543 492.051788,641.100464 
	C490.950775,641.567322 489.986481,642.915710 488.960022,642.917664 
	C463.306305,642.966858 437.652374,642.888977 411.998291,642.460693 
	C409.964203,638.431885 408.090576,634.674377 405.854889,631.146301 
	C403.207947,626.969299 400.294006,622.957886 397.414124,618.933044 
	C393.247131,613.109436 389.044098,607.310669 384.782410,601.556152 
	C382.580261,598.582642 379.620514,596.015869 378.049561,592.760376 
	C374.454102,585.309204 369.939087,578.663330 364.294342,572.613098 
	C361.196228,569.292358 358.849701,565.253235 356.285980,561.455933 
	C353.905670,557.930176 351.773315,554.236145 349.371002,550.726318 
	C347.302063,547.703552 345.037750,544.811768 342.795898,541.911438 
	C341.900299,540.752808 340.606079,539.858582 339.884949,538.616638 
	C337.276794,534.124695 335.159943,529.314087 332.241791,525.044678 
	C329.135376,520.499817 325.296753,516.459351 321.845184,512.144714 
	C320.401642,510.340271 319.033508,508.458740 317.802765,506.504150 
	C315.018829,502.082703 312.537872,497.458832 309.578369,493.162048 
	C304.172546,485.313507 298.558289,477.606140 292.903168,469.934113 
	C291.997772,468.705811 290.428711,467.966736 289.088593,466.551941 
	C289.010742,463.827362 289.010742,461.552338 289.010742,458.999329 
	C294.447327,458.999329 299.418854,459.026703 304.389648,458.978485 
	C305.515747,458.967590 307.589233,458.804565 307.621765,458.524963 
	C308.118225,454.255554 311.367371,456.077667 313.346710,456.074310 
	C368.333588,455.981537 423.322723,456.245819 478.305756,455.777222 
	C488.405792,455.691162 498.703735,458.652527 508.936096,453.345642 
	C514.582581,450.417236 522.026245,450.954071 528.682617,449.925201 
	C528.953125,448.457306 529.176208,447.246826 529.338562,446.365936 
	C531.802673,445.982483 534.942932,446.381012 535.735291,445.201874 
	C537.987427,441.850342 541.979797,442.436249 544.750671,440.203430 
	C547.276794,438.167938 551.192444,437.870453 554.467957,436.727814 
	C554.751892,436.628754 554.709351,435.757477 555.021301,435.550049 
	C558.929504,432.952026 560.312988,426.632111 567.701111,428.222137 
	C563.784668,422.303986 570.180847,425.007812 571.293152,422.434204 
	C572.572388,419.474518 576.212646,417.624023 578.424133,414.957336 
	C581.602478,411.124847 587.718140,409.047058 586.361023,403.779266 
	C590.047180,400.222168 593.616699,397.744568 595.806152,394.371246 
	C597.697266,391.457642 598.014404,387.524139 599.043030,384.046143 
	C599.132690,383.743011 599.290955,383.430969 599.499817,383.196655 
	C602.781555,379.515564 604.945679,375.194855 605.054871,372.146271 
	C605.065247,371.857513 605.302246,371.576904 605.427612,371.306335 
	C606.641663,371.035431 607.832214,370.769745 609.138367,370.478241 
	C609.138367,367.342926 608.138550,362.652466 609.312683,362.024078 
	C614.209717,359.403229 611.061890,355.378998 611.977844,352.206665 
	C612.366699,350.860107 612.327209,349.372864 612.819946,348.078003 
	C613.335327,346.723633 614.890564,345.529877 614.903198,344.255157 
	C615.053284,329.093536 615.001831,313.929932 614.995850,298.766846 
	C614.995483,297.772614 615.225037,296.038574 614.859680,295.895508 
	C609.703613,293.877289 612.843079,289.506195 612.008789,286.308746 
	C611.730469,285.241974 611.569458,283.211365 611.330261,283.207672 
	C607.752686,283.152435 609.218994,280.496460 609.043213,278.849976 
	C608.852478,277.063568 609.000000,275.241028 609.000000,273.312988 
	C607.502808,273.061249 606.286926,272.856812 605.633667,272.746948 
	C604.217041,268.654633 602.981506,265.079071 601.734985,261.507294 
	C601.683655,261.359955 601.553406,261.177429 601.418701,261.130981 
	C597.043823,259.623260 597.944641,254.750946 596.490906,251.792725 
	C593.990601,246.704849 590.252319,244.061523 586.019409,240.800766 
	C587.165710,236.605026 584.173889,234.401321 580.988892,231.872375 
	C577.387878,229.013031 573.806458,225.828079 571.211609,222.093353 
	C568.965454,218.860550 566.991394,216.189484 562.800903,215.949051 
	C562.189270,215.913956 561.563538,215.293533 561.031250,214.841553 
	C557.480225,211.826080 555.798523,206.120255 549.559509,206.943222 
	C549.099365,207.003952 548.566772,206.359146 548.040161,206.098419 
	C544.586914,204.388885 541.130859,202.684631 537.661133,201.009048 
	C537.248047,200.809586 536.746033,200.794189 536.341980,200.705872 
	C536.044495,199.373657 535.777588,198.178452 535.544128,197.132858 
	C530.377808,196.006973 523.912781,196.493866 521.162354,193.531662 
	C517.503418,189.591019 514.104675,191.984604 510.780548,191.018951 
	C509.574341,190.668594 507.235321,190.571213 507.226257,190.298309 
	C507.107513,186.714111 504.437469,188.052521 502.829102,188.051056 
	C437.178009,187.991272 371.526825,187.996567 305.875671,188.025177 
	C304.608398,188.025726 302.248627,188.356613 302.237701,188.611954 
	C302.069672,192.545731 299.137543,190.716736 297.410706,190.935577 
	C295.278687,191.205734 291.993073,190.103668 291.119965,191.166656 
	C288.188171,194.736191 284.510956,193.760300 280.968353,194.054688 
	C280.671387,194.079376 280.381012,194.339035 280.112518,194.525452 
	C278.445618,195.682846 276.785858,196.850510 275.123688,198.014755 
	C274.829742,197.727371 274.535797,197.439972 274.241821,197.152588 
	C274.080750,198.367920 273.919678,199.583267 273.784210,200.605209 
	C271.198120,201.856857 268.162292,199.526932 266.146515,203.546936 
	C265.082092,205.669617 260.264191,205.906433 257.144653,207.005142 
	C256.438660,207.253799 255.549545,207.358002 255.083755,207.849808 
	C252.753876,210.309708 250.710846,213.123917 246.773972,213.035522 
	C246.209259,213.022858 245.466248,213.294464 245.091293,213.699097 
	C242.093109,216.934555 239.221237,220.288406 236.184891,223.486557 
	C234.967896,224.768402 233.349289,225.660538 232.064087,226.887787 
	C229.272690,229.553375 226.512848,232.259064 223.870255,235.070663 
	C222.442459,236.589752 220.280243,238.312820 220.198257,240.027496 
	C219.989243,244.398483 218.280960,246.774658 214.150497,248.174850 
	C212.499756,248.734451 210.849594,250.644165 210.136322,252.334732 
	C208.735718,255.654327 207.993332,259.251404 206.972839,262.731964 
	C206.883301,263.037384 206.812317,263.375214 206.629990,263.622192 
	C204.775696,266.133759 202.065643,268.374420 201.206528,271.183685 
	C199.492233,276.789398 198.790421,282.704681 197.614258,288.782471 
	C196.554794,288.922180 195.353134,289.080627 194.597214,289.180298 
	C192.255753,295.080933 196.925842,301.583466 191.193390,306.715088 
	C189.919907,307.855072 190.894272,311.506104 190.496231,313.955597 
	C187.470245,310.472076 184.800323,307.019196 182.088776,303.599274 
	C177.953491,298.383728 173.769302,293.206726 169.664322,287.967560 
	C169.178986,287.348145 169.203201,286.343536 168.750244,285.682556 
	C164.695862,279.766235 160.608978,273.871735 156.482773,268.005219 
	C155.089966,266.024963 153.431107,264.225067 152.114990,262.199066 
	C149.545166,258.243134 147.427475,253.959991 144.580139,250.225937 
	C140.731659,245.178970 136.366241,240.526749 132.241135,235.689362 
	C131.816803,235.191742 131.494827,234.600281 131.165436,234.029251 
	C126.702271,226.291901 122.548355,218.353806 117.682869,210.878708 
	C114.402359,205.838684 110.002716,201.540848 106.319405,196.745316 
	C102.739243,192.084045 99.339172,187.276093 96.033081,182.414871 
	C92.247093,176.847977 88.615730,171.174484 84.988716,165.501572 
	C83.159561,162.640625 81.650414,159.565735 79.712288,156.785767 
	C75.614426,150.907928 71.376984,145.124725 67.065285,139.401794 
	C66.490974,138.639511 65.151436,138.453766 64.088699,137.577835 
	C62.540749,133.927139 65.803894,132.904678 67.137543,131.343582 
	C69.821487,128.201920 73.200287,125.653877 76.292381,122.860893 
	C77.253464,120.847343 78.495453,118.856209 79.978760,117.064880 
	C84.135429,112.045067 87.559196,105.739616 92.843636,102.523903 
	C98.094162,99.328827 100.683693,94.333076 104.940674,90.650963 
	C107.560356,88.385056 109.438423,85.216690 112.170654,83.138824 
	C114.811310,81.130592 119.360168,76.960899 121.107079,74.157829 
	C122.114494,72.541344 123.767258,70.361488 125.295036,70.219826 
	C129.512604,69.828735 131.936203,67.433800 134.343201,64.474037 
	C135.465851,63.093571 137.123428,61.189011 138.545013,61.183468 
	C143.617538,61.163692 145.097107,57.537872 146.840607,53.971848 
	C148.576141,53.971848 151.044861,54.673344 151.765930,53.848003 
	C154.588425,50.617294 157.488083,48.197933 161.895264,47.094608 
	C165.037033,46.308071 167.595657,42.651791 170.668930,42.257080 
	C175.432205,41.645313 177.080948,38.835510 178.284103,35.877663 
	C182.901764,33.323620 187.665924,32.745823 191.627640,29.467712 
	C194.111343,27.412565 198.471237,30.050028 201.635330,26.260818 
	C203.566330,23.948336 208.314590,23.990484 211.794724,22.965687 
	C212.096664,22.876768 212.611694,22.750378 212.634689,22.586325 
	C213.237045,18.286507 216.567993,20.468393 218.754303,20.030830 
	C219.680069,19.845551 220.673813,19.999926 221.654678,19.999926 
	C221.956726,18.434608 222.188461,17.233742 222.441940,15.920132 
	C225.570206,15.920132 230.255203,16.925434 230.893402,15.744245 
	C233.507050,10.906806 237.493958,13.853277 240.688385,13.009306 
	C241.755035,12.727494 243.788422,12.568843 243.792038,12.329829 
	C243.846252,8.752595 246.502228,10.193927 248.146698,10.041706 
	C250.936951,9.783430 255.685516,10.667064 256.207489,9.520852 
	C258.072235,5.425880 261.122162,7.331295 263.606079,7.077347 
	C266.739288,6.757017 269.931000,7.043366 273.095428,6.973347 
	C274.042023,6.952400 275.799866,6.628320 275.803345,6.419911 
	C275.869537,2.478515 278.852844,4.090173 280.554260,4.069265 
	C291.550079,3.934136 302.548645,3.965073 313.545746,4.029426 
	C315.754822,4.042353 317.593964,4.009477 317.000000,1.000000 
z"/>
<path fill="#000000" opacity="1.000000" stroke="none" 
	d="
M190.833649,314.000977 
	C190.894272,311.506104 189.919907,307.855072 191.193390,306.715088 
	C196.925842,301.583466 192.255753,295.080933 194.597214,289.180298 
	C195.353134,289.080627 196.554794,288.922180 197.614258,288.782471 
	C198.790421,282.704681 199.492233,276.789398 201.206528,271.183685 
	C202.065643,268.374420 204.775696,266.133759 206.629990,263.622192 
	C206.812317,263.375214 206.883301,263.037384 206.972839,262.731964 
	C207.993332,259.251404 208.735718,255.654327 210.136322,252.334732 
	C210.849594,250.644165 212.499756,248.734451 214.150497,248.174850 
	C218.280960,246.774658 219.989243,244.398483 220.198257,240.027496 
	C220.280243,238.312820 222.442459,236.589752 223.870255,235.070663 
	C226.512848,232.259064 229.272690,229.553375 232.064087,226.887787 
	C233.349289,225.660538 234.967896,224.768402 236.184891,223.486557 
	C239.221237,220.288406 242.093109,216.934555 245.091293,213.699097 
	C245.466248,213.294464 246.209259,213.022858 246.773972,213.035522 
	C250.710846,213.123917 252.753876,210.309708 255.083755,207.849808 
	C255.549545,207.358002 256.438660,207.253799 257.144653,207.005142 
	C260.264191,205.906433 265.082092,205.669617 266.146515,203.546936 
	C268.162292,199.526932 271.198120,201.856857 273.784210,200.605209 
	C273.919678,199.583267 274.080750,198.367920 274.241821,197.152588 
	C274.535797,197.439972 274.829742,197.727371 275.123688,198.014755 
	C276.785858,196.850510 278.445618,195.682846 280.112518,194.525452 
	C280.381012,194.339035 280.671387,194.079376 280.968353,194.054688 
	C284.510956,193.760300 288.188171,194.736191 291.119965,191.166656 
	C291.993073,190.103668 295.278687,191.205734 297.410706,190.935577 
	C299.137543,190.716736 302.069672,192.545731 302.237701,188.611954 
	C302.248627,188.356613 304.608398,188.025726 305.875671,188.025177 
	C371.526825,187.996567 437.178009,187.991272 502.829102,188.051056 
	C504.437469,188.052521 507.107513,186.714111 507.226257,190.298309 
	C507.235321,190.571213 509.574341,190.668594 510.780548,191.018951 
	C514.104675,191.984604 517.503418,189.591019 521.162354,193.531662 
	C523.912781,196.493866 530.377808,196.006973 535.544128,197.132858 
	C535.777588,198.178452 536.044495,199.373657 536.341980,200.705872 
	C536.746033,200.794189 537.248047,200.809586 537.661133,201.009048 
	C541.130859,202.684631 544.586914,204.388885 548.040161,206.098419 
	C548.566772,206.359146 549.099365,207.003952 549.559509,206.943222 
	C555.798523,206.120255 557.480225,211.826080 561.031250,214.841553 
	C561.563538,215.293533 562.189270,215.913956 562.800903,215.949051 
	C566.991394,216.189484 568.965454,218.860550 571.211609,222.093353 
	C573.806458,225.828079 577.387878,229.013031 580.988892,231.872375 
	C584.173889,234.401321 587.165710,236.605026 586.019409,240.800766 
	C590.252319,244.061523 593.990601,246.704849 596.490906,251.792725 
	C597.944641,254.750946 597.043823,259.623260 601.418701,261.130981 
	C601.553406,261.177429 601.683655,261.359955 601.734985,261.507294 
	C602.981506,265.079071 604.217041,268.654633 605.633667,272.746948 
	C606.286926,272.856812 607.502808,273.061249 609.000000,273.312988 
	C609.000000,275.241028 608.852478,277.063568 609.043213,278.849976 
	C609.218994,280.496460 607.752686,283.152435 611.330261,283.207672 
	C611.569458,283.211365 611.730469,285.241974 612.008789,286.308746 
	C612.843079,289.506195 609.703613,293.877289 614.859680,295.895508 
	C615.225037,296.038574 614.995483,297.772614 614.995850,298.766846 
	C615.001831,313.929932 615.053284,329.093536 614.903198,344.255157 
	C614.890564,345.529877 613.335327,346.723633 612.819946,348.078003 
	C612.327209,349.372864 612.366699,350.860107 611.977844,352.206665 
	C611.061890,355.378998 614.209717,359.403229 609.312683,362.024078 
	C608.138550,362.652466 609.138367,367.342926 609.138367,370.478241 
	C607.832214,370.769745 606.641663,371.035431 605.427612,371.306335 
	C605.302246,371.576904 605.065247,371.857513 605.054871,372.146271 
	C604.945679,375.194855 602.781555,379.515564 599.499817,383.196655 
	C599.290955,383.430969 599.132690,383.743011 599.043030,384.046143 
	C598.014404,387.524139 597.697266,391.457642 595.806152,394.371246 
	C593.616699,397.744568 590.047180,400.222168 586.361023,403.779266 
	C587.718140,409.047058 581.602478,411.124847 578.424133,414.957336 
	C576.212646,417.624023 572.572388,419.474518 571.293152,422.434204 
	C570.180847,425.007812 563.784668,422.303986 567.701111,428.222137 
	C560.312988,426.632111 558.929504,432.952026 555.021301,435.550049 
	C554.709351,435.757477 554.751892,436.628754 554.467957,436.727814 
	C551.192444,437.870453 547.276794,438.167938 544.750671,440.203430 
	C541.979797,442.436249 537.987427,441.850342 535.735291,445.201874 
	C534.942932,446.381012 531.802673,445.982483 529.338562,446.365936 
	C529.176208,447.246826 528.953125,448.457306 528.682617,449.925201 
	C522.026245,450.954071 514.582581,450.417236 508.936096,453.345642 
	C498.703735,458.652527 488.405792,455.691162 478.305756,455.777222 
	C423.322723,456.245819 368.333588,455.981537 313.346710,456.074310 
	C311.367371,456.077667 308.118225,454.255554 307.621765,458.524963 
	C307.589233,458.804565 305.515747,458.967590 304.389648,458.978485 
	C299.418854,459.026703 294.447327,458.999329 289.010742,458.999329 
	C289.010742,461.552338 289.010742,463.827362 289.012817,466.997009 
	C288.058960,470.363464 291.320953,474.308105 286.363708,475.471649 
	C286.078003,475.538727 286.014832,476.980347 286.016357,477.781952 
	C286.052338,496.521545 286.111511,515.261108 286.089905,534.463745 
	C286.008942,542.712830 285.925842,550.499939 286.041016,558.284180 
	C286.083832,561.178589 286.590790,564.066223 286.510071,567.175842 
	C286.144928,572.263184 286.155762,577.131653 286.089691,582.459229 
	C286.064056,587.278809 286.115326,591.639343 286.089661,596.395386 
	C286.063965,597.860657 286.115204,598.930298 286.089539,600.395630 
	C286.063904,601.860962 286.115204,602.930725 286.089508,604.458130 
	C286.063904,608.943726 286.115265,612.971802 286.089661,617.452148 
	C286.148682,620.834106 285.492920,625.916260 286.561890,626.309448 
	C290.546051,627.775024 288.651337,630.550415 288.929871,632.700867 
	C289.235748,635.062317 288.999573,637.493896 288.999573,639.833374 
	C293.774139,639.833374 297.887177,639.833374 302.434753,639.910400 
	C304.358826,640.022644 306.922211,639.593079 307.169952,640.165588 
	C309.380646,645.274231 313.398041,642.404236 316.996521,642.416992 
	C320.875061,642.413330 324.437592,642.623413 328.452698,642.910522 
	C332.270264,642.936157 335.635162,642.884766 339.463074,642.910461 
	C347.283844,642.936218 354.641632,642.884888 362.462402,642.911072 
	C379.283112,642.936951 395.640778,642.885254 411.998474,642.833557 
	C437.652374,642.888977 463.306305,642.966858 488.960022,642.917664 
	C489.986481,642.915710 490.950775,641.567322 492.051788,641.100464 
	C493.275665,640.581543 494.620911,640.056763 495.917175,640.046875 
	C506.746338,639.964355 517.577332,640.070557 528.405212,639.926392 
	C530.092468,639.903931 533.078247,641.564392 533.191772,637.622437 
	C533.198486,637.389526 534.928955,637.048767 535.863159,637.028381 
	C539.193848,636.955811 542.540405,637.182007 545.854797,636.938477 
	C548.221130,636.764587 551.007874,638.326599 552.760132,634.506165 
	C553.290649,633.349548 558.024536,634.240784 560.807983,633.951904 
	C562.427429,633.783875 564.557861,635.165649 565.438354,631.816833 
	C565.699890,630.822205 570.503296,631.021729 573.639038,630.621338 
	C573.805725,629.773560 574.042236,628.570679 574.351013,627.000000 
	C576.647339,627.000000 578.978149,627.235229 581.236938,626.932678 
	C583.414001,626.641052 586.764709,628.758179 587.374695,624.418091 
	C587.402222,624.222412 588.334045,623.903015 588.687317,624.041870 
	C593.733765,626.025269 597.223389,621.625061 601.594910,620.741577 
	C604.358887,620.182922 606.651917,617.304321 609.164795,615.478149 
	C609.425598,615.288635 609.799316,614.994507 610.029907,615.061462 
	C615.440308,616.632874 619.528748,612.418701 624.827637,611.385559 
	C624.923401,610.628906 625.077576,609.411133 625.231750,608.193420 
	C625.593994,608.555298 625.956299,608.917175 626.318542,609.279053 
	C629.220764,607.230713 632.131409,605.194092 635.014160,603.118713 
	C635.362671,602.867798 635.488098,602.196838 635.838867,602.076538 
	C638.967712,601.004272 642.255798,600.298279 645.239624,598.925232 
	C649.132812,597.133667 652.857971,594.937988 656.490234,592.653503 
	C657.147522,592.240112 657.009583,590.562439 657.317688,589.091675 
	C664.006287,591.205017 665.319824,580.460938 672.376221,582.832703 
	C675.859680,578.881958 679.343140,574.931152 681.363892,572.639343 
	C686.979919,568.704895 691.126892,566.106140 694.907471,563.053528 
	C697.894409,560.641785 700.484497,557.723145 703.142334,554.926514 
	C704.268433,553.741577 704.945190,552.112671 706.119812,550.993713 
	C712.540833,544.877075 719.099365,538.904053 725.474731,532.741089 
	C726.258667,531.983215 725.918823,530.097595 726.681458,529.271667 
	C727.262329,528.642456 728.764954,528.864197 730.097229,528.672913 
	C728.590332,522.192078 734.765930,520.788635 737.374939,517.067810 
	C739.117615,514.582642 742.059448,513.376099 742.336182,509.367249 
	C742.497559,507.028961 746.005432,504.921631 747.154236,503.652893 
	C749.173035,500.972565 750.808899,499.384888 751.713806,497.454559 
	C752.906494,494.910400 755.517883,493.367859 755.358643,489.636200 
	C755.252380,487.146484 758.596741,484.563965 760.221191,481.915314 
	C760.761475,481.034393 760.502441,479.660919 761.047241,478.785522 
	C762.736511,476.070862 764.636658,473.487427 766.969482,471.254700 
	C767.953613,468.752045 771.021729,462.678528 773.509338,459.820923 
	C773.802490,459.484222 774.082764,458.824615 773.949280,458.474976 
	C772.027954,453.442688 776.258240,449.897858 777.231506,445.568329 
	C777.859802,442.773682 781.197937,440.674988 782.245605,437.863434 
	C783.289917,435.060760 782.991638,431.757812 783.318726,428.284729 
	C784.314148,428.127319 785.526611,427.935577 787.063110,427.692596 
	C785.611572,420.567780 792.257324,414.876129 790.007568,407.693848 
	C794.909668,404.083893 790.842285,397.496979 793.361633,394.522797 
	C798.089233,388.941528 793.780457,382.757446 796.197937,377.884796 
	C800.826965,368.554779 797.981934,358.820190 799.265076,349.371063 
	C799.285828,349.218323 799.821960,349.135498 800.558777,349.010010 
	C801.000000,447.953064 801.000000,546.906128 801.000000,646.000000 
	C592.645813,646.000000 384.291565,646.000000 175.469513,645.555176 
	C176.114441,644.407104 177.203064,643.146179 178.344086,643.096802 
	C183.447403,642.876038 188.565659,643.000732 194.050369,643.000732 
	C194.050369,636.456177 194.050369,630.362610 194.050369,624.367737 
	C195.628372,624.028992 196.820847,623.773010 197.806580,623.561401 
	C197.806580,572.911072 197.806580,522.639465 197.806580,472.308746 
	C196.439957,472.050964 195.241791,471.824951 193.684601,471.531219 
	C193.684601,465.193359 193.684601,459.118866 193.684601,453.005951 
	C188.263702,453.005951 183.266418,453.045990 178.270737,452.974182 
	C177.196777,452.958740 176.051788,452.708160 175.076599,452.264587 
	C173.755920,451.663818 172.569107,450.104645 171.322128,450.101685 
	C123.013504,449.986145 74.704575,449.997528 26.395693,450.023590 
	C25.287523,450.024200 23.218924,450.364288 23.214035,450.582245 
	C23.125473,454.530243 20.156292,452.853119 18.447077,452.927551 
	C13.696946,453.134430 8.931920,452.999329 3.999181,452.999329 
	C3.999181,458.756226 3.859248,463.908600 4.059813,469.047668 
	C4.156180,471.516846 3.367823,472.407623 1.000000,472.000000 
	C1.000000,315.087280 1.000000,158.174561 1.000000,1.000000 
	C106.020752,1.000000 211.041718,1.000000 316.531342,1.000000 
	C317.593964,4.009477 315.754822,4.042353 313.545746,4.029426 
	C302.548645,3.965073 291.550079,3.934136 280.554260,4.069265 
	C278.852844,4.090173 275.869537,2.478515 275.803345,6.419911 
	C275.799866,6.628320 274.042023,6.952400 273.095428,6.973347 
	C269.931000,7.043366 266.739288,6.757017 263.606079,7.077347 
	C261.122162,7.331295 258.072235,5.425880 256.207489,9.520852 
	C255.685516,10.667064 250.936951,9.783430 248.146698,10.041706 
	C246.502228,10.193927 243.846252,8.752595 243.792038,12.329829 
	C243.788422,12.568843 241.755035,12.727494 240.688385,13.009306 
	C237.493958,13.853277 233.507050,10.906806 230.893402,15.744245 
	C230.255203,16.925434 225.570206,15.920132 222.441940,15.920132 
	C222.188461,17.233742 221.956726,18.434608 221.654678,19.999926 
	C220.673813,19.999926 219.680069,19.845551 218.754303,20.030830 
	C216.567993,20.468393 213.237045,18.286507 212.634689,22.586325 
	C212.611694,22.750378 212.096664,22.876768 211.794724,22.965687 
	C208.314590,23.990484 203.566330,23.948336 201.635330,26.260818 
	C198.471237,30.050028 194.111343,27.412565 191.627640,29.467712 
	C187.665924,32.745823 182.901764,33.323620 178.284103,35.877663 
	C177.080948,38.835510 175.432205,41.645313 170.668930,42.257080 
	C167.595657,42.651791 165.037033,46.308071 161.895264,47.094608 
	C157.488083,48.197933 154.588425,50.617294 151.765930,53.848003 
	C151.044861,54.673344 148.576141,53.971848 146.840607,53.971848 
	C145.097107,57.537872 143.617538,61.163692 138.545013,61.183468 
	C137.123428,61.189011 135.465851,63.093571 134.343201,64.474037 
	C131.936203,67.433800 129.512604,69.828735 125.295036,70.219826 
	C123.767258,70.361488 122.114494,72.541344 121.107079,74.157829 
	C119.360168,76.960899 114.811310,81.130592 112.170654,83.138824 
	C109.438423,85.216690 107.560356,88.385056 104.940674,90.650963 
	C100.683693,94.333076 98.094162,99.328827 92.843636,102.523903 
	C87.559196,105.739616 84.135429,112.045067 79.978760,117.064880 
	C78.495453,118.856209 77.253464,120.847343 76.292381,122.860893 
	C73.200287,125.653877 69.821487,128.201920 67.137543,131.343582 
	C65.803894,132.904678 62.540749,133.927139 64.007263,137.978424 
	C61.437504,141.687012 56.728088,143.192245 57.631119,146.767258 
	C54.926598,150.035110 52.528702,152.176453 51.115696,154.840240 
	C49.519650,157.849091 48.850483,161.343002 47.648163,164.577621 
	C47.528347,164.899963 46.157829,164.706467 45.971966,165.065323 
	C45.515648,165.946350 45.412167,167.010117 45.089825,168.418579 
	C44.008705,170.603546 42.070454,172.448074 42.209621,174.119659 
	C42.444122,176.936264 40.832851,177.799530 39.089474,179.320618 
	C38.971985,180.078339 38.931637,180.515381 38.459930,180.974426 
	C37.019451,181.742081 35.355782,182.336105 35.140450,183.265656 
	C34.720612,185.078049 35.111439,187.078201 34.969528,189.367737 
	C33.848423,190.646332 32.432457,191.412048 32.109650,192.501648 
	C31.554382,194.375824 33.007702,197.141541 29.398584,197.403732 
	C29.259125,197.413879 29.241226,199.097244 29.089554,200.422272 
	C25.778992,203.796234 25.632465,207.619781 25.978539,211.583939 
	C25.992743,211.746674 26.014553,212.035583 25.952095,212.060104 
	C20.808977,214.079468 23.798679,218.572418 22.518551,221.942596 
	C21.389978,223.104263 20.329775,224.141266 20.087933,225.342987 
	C19.743700,227.053467 20.000435,228.884872 20.000435,230.656174 
	C18.420261,230.959915 17.226862,231.189316 15.954508,231.433884 
	C15.954508,234.547546 16.996908,239.124573 15.770437,239.846359 
	C10.973295,242.669556 13.744112,246.620956 13.090199,250.442322 
	C12.968149,252.706497 13.469807,255.860672 12.789773,256.140228 
	C7.821777,258.182465 10.495869,262.237427 10.087669,265.324219 
	C9.655066,268.595642 11.149548,273.974640 9.634886,274.905243 
	C4.961740,277.776367 7.347525,281.553589 7.126684,284.763702 
	C6.693189,291.065002 7.032490,297.417480 6.966524,303.747925 
	C6.955417,304.813751 6.541874,306.791992 6.269542,306.799835 
	C2.666949,306.903900 4.071427,309.601501 4.057268,311.195984 
	C3.950754,323.190796 3.995713,335.187012 4.000743,347.182770 
	C4.003077,352.747192 6.328406,354.995239 12.062714,355.000397 
	C14.538703,355.002625 17.014696,355.000763 19.763025,355.000763 
	C19.926960,356.414703 20.067152,357.623871 20.207361,358.833191 
	C43.392406,358.833191 66.195564,358.833191 89.461761,358.910828 
	C98.949478,358.936829 107.974144,358.885193 117.461861,358.911011 
	C125.616295,358.936768 133.307678,358.885040 141.458221,358.910583 
	C146.278061,358.936340 150.638718,358.884888 155.448212,358.910370 
	C158.931229,358.936035 161.965424,358.884705 165.330109,358.909851 
	C166.107101,358.935364 166.553589,358.884430 167.440216,358.910278 
	C170.156219,358.987091 172.432068,358.987091 174.326141,358.987091 
	C174.989563,357.339386 175.494110,356.086273 176.460266,354.910522 
	C181.537842,354.987885 186.153778,354.987885 189.781754,354.987885 
	C191.083115,356.933838 191.886017,358.134460 192.688919,359.335083 
	C193.160202,359.109863 193.631470,358.884674 194.102737,358.659454 
	C193.949677,355.237885 195.033020,349.833221 193.386642,348.806763 
	C189.939850,346.657745 191.128967,344.197083 191.071548,341.872314 
	C190.842178,332.585571 190.889038,323.292023 190.833649,314.000977 
z"/>
<path fill="#EEFFFE" opacity="1.000000" stroke="none" 
	d="
M1.000000,472.468658 
	C3.367823,472.407623 4.156180,471.516846 4.059813,469.047668 
	C3.859248,463.908600 3.999181,458.756226 3.999181,452.999329 
	C8.931920,452.999329 13.696946,453.134430 18.447077,452.927551 
	C20.156292,452.853119 23.125473,454.530243 23.214035,450.582245 
	C23.218924,450.364288 25.287523,450.024200 26.395693,450.023590 
	C74.704575,449.997528 123.013504,449.986145 171.322128,450.101685 
	C172.569107,450.104645 173.755920,451.663818 175.076599,452.264587 
	C176.051788,452.708160 177.196777,452.958740 178.270737,452.974182 
	C183.266418,453.045990 188.263702,453.005951 193.684601,453.005951 
	C193.684601,459.118866 193.684601,465.193359 193.684601,471.531219 
	C195.241791,471.824951 196.439957,472.050964 197.806580,472.308746 
	C197.806580,522.639465 197.806580,572.911072 197.806580,623.561401 
	C196.820847,623.773010 195.628372,624.028992 194.050369,624.367737 
	C194.050369,630.362610 194.050369,636.456177 194.050369,643.000732 
	C188.565659,643.000732 183.447403,642.876038 178.344086,643.096802 
	C177.203064,643.146179 176.114441,644.407104 175.000854,645.555176 
	C124.645775,646.000000 74.291542,646.000000 23.467220,645.555176 
	C21.895756,644.407593 20.817755,643.144958 19.689018,643.097900 
	C14.484211,642.880615 9.265266,643.002014 3.997907,643.002014 
	C3.997907,637.163879 3.855573,632.033081 4.059214,626.916138 
	C4.157924,624.435852 3.320425,623.611938 1.000000,624.000000 
	C1.000000,573.645752 1.000000,523.291565 1.000000,472.468658 
z"/>
<path fill="#000000" opacity="1.000000" stroke="none" 
	d="
M801.000000,294.531342 
	C800.333313,293.848877 799.128662,292.715332 799.090454,291.543671 
	C798.894836,285.551758 799.111816,279.546539 798.929138,273.553802 
	C798.877014,271.843842 800.519531,268.867554 796.578552,268.803162 
	C796.371094,268.799713 796.047546,267.041077 796.026611,266.094086 
	C795.956726,262.929810 796.242981,259.738251 795.922729,256.605194 
	C795.668823,254.121109 797.661743,250.928436 793.442444,249.247208 
	C792.500854,248.872040 793.218384,244.601593 792.960876,242.146698 
	C792.788147,240.500519 794.244141,237.859619 790.670593,237.770264 
	C790.417358,237.763931 790.320435,235.407761 789.981140,234.191544 
	C789.051086,230.857788 792.356750,226.562500 787.221497,223.937332 
	C786.211426,223.420990 787.075989,219.237701 787.075989,216.447845 
	C785.772583,216.192627 784.569702,215.957108 783.000305,215.649826 
	C783.000305,214.845291 782.949707,214.044357 783.008484,213.251541 
	C783.412170,207.806076 780.652039,203.806488 777.589417,199.611481 
	C775.634033,196.933121 774.472107,193.246414 774.159973,189.899368 
	C773.706299,185.035095 771.568359,181.420120 768.669861,177.750214 
	C767.549988,176.332367 768.002747,173.672455 767.735901,171.553574 
	C764.536743,170.009354 761.549011,168.690125 760.763977,164.198380 
	C760.247681,161.244339 757.476379,158.690094 755.745422,155.937576 
	C755.423584,155.425812 754.902222,154.691437 755.057861,154.282272 
	C756.393433,150.770737 753.069336,149.260300 751.881592,146.890152 
	C750.853699,144.839050 749.183350,143.109909 748.236206,140.897491 
	C744.950867,139.173431 742.038086,137.443695 741.781555,132.579407 
	C741.680176,130.657990 739.172485,128.837265 737.699890,127.019829 
	C734.563843,123.149437 728.348145,121.245193 729.671448,115.988342 
	C714.956970,101.435226 700.948303,87.580223 686.409729,73.201103 
	C681.203186,74.418930 679.818909,68.209923 676.068787,65.635902 
	C673.573242,63.923031 672.397827,60.934269 668.378906,60.663956 
	C666.042542,60.506809 663.931335,57.001080 662.583069,55.782940 
	C659.985596,53.832157 658.387878,52.225033 656.463745,51.288086 
	C653.938477,50.058380 652.278137,47.640572 648.660767,47.654022 
	C646.094849,47.663559 643.567261,44.411533 640.916565,42.788319 
	C640.035828,42.248940 638.671021,42.496803 637.795044,41.953487 
	C635.100220,40.282085 632.534729,38.402061 630.299561,36.055714 
	C627.726440,35.040810 621.666504,31.978670 618.828247,29.495121 
	C618.492188,29.201015 617.832031,28.917730 617.483704,29.051216 
	C612.449097,30.980589 608.910828,26.729195 604.575745,25.767769 
	C601.780884,25.147947 599.677063,21.809914 596.864197,20.761040 
	C594.062500,19.716335 590.762207,20.009014 587.294312,19.678511 
	C587.134033,18.692623 586.937134,17.481932 586.696167,16.000067 
	C583.761353,16.000067 580.947083,16.137842 578.155212,15.947489 
	C576.525879,15.836399 573.801270,17.280125 573.904968,13.681597 
	C573.910828,13.478874 573.469299,13.128887 573.190369,13.072256 
	C568.045776,12.027746 562.887512,11.050350 557.747437,9.984555 
	C555.568787,9.532819 552.271912,11.715395 551.560791,7.419666 
	C551.513611,7.134644 549.753479,7.031365 548.787720,7.018520 
	C545.289307,6.971990 541.778748,7.168211 538.295166,6.936325 
	C536.242493,6.799692 533.168701,8.509048 532.553772,4.451771 
	C532.503601,4.120907 530.129395,4.022756 528.834473,4.018884 
	C517.837646,3.985997 506.839600,4.069529 495.845062,3.907120 
	C494.554108,3.888050 493.281952,2.593016 492.000549,1.444747 
	C594.925232,1.000000 697.850464,1.000000 801.000000,1.000000 
	C801.000000,98.687447 801.000000,196.375061 801.000000,294.531342 
z"/>
<path fill="#000000" opacity="1.000000" stroke="none" 
	d="
M1.000000,624.468750 
	C3.320425,623.611938 4.157924,624.435852 4.059214,626.916138 
	C3.855573,632.033081 3.997907,637.163879 3.997907,643.002014 
	C9.265266,643.002014 14.484211,642.880615 19.689018,643.097900 
	C20.817755,643.144958 21.895756,644.407593 22.998562,645.555176 
	C15.740432,646.000000 8.480864,646.000000 1.000000,646.000000 
	C1.000000,638.980713 1.000000,631.959167 1.000000,624.468750 
z"/>
<path fill="#EBFFF4" opacity="1.000000" stroke="none" 
	d="
M45.166752,168.000381 
	C45.412167,167.010117 45.515648,165.946350 45.971966,165.065323 
	C46.157829,164.706467 47.528347,164.899963 47.648163,164.577621 
	C48.850483,161.343002 49.519650,157.849091 51.115696,154.840240 
	C52.528702,152.176453 54.926598,150.035110 57.631119,146.767258 
	C56.728088,143.192245 61.437504,141.687012 64.084839,138.401611 
	C65.151436,138.453766 66.490974,138.639511 67.065285,139.401794 
	C71.376984,145.124725 75.614426,150.907928 79.712288,156.785767 
	C81.650414,159.565735 83.159561,162.640625 84.988716,165.501572 
	C88.615730,171.174484 92.247093,176.847977 96.033081,182.414871 
	C99.339172,187.276093 102.739243,192.084045 106.319405,196.745316 
	C110.002716,201.540848 114.402359,205.838684 117.682869,210.878708 
	C122.548355,218.353806 126.702271,226.291901 131.165436,234.029251 
	C131.494827,234.600281 131.816803,235.191742 132.241135,235.689362 
	C136.366241,240.526749 140.731659,245.178970 144.580139,250.225937 
	C147.427475,253.959991 149.545166,258.243134 152.114990,262.199066 
	C153.431107,264.225067 155.089966,266.024963 156.482773,268.005219 
	C160.608978,273.871735 164.695862,279.766235 168.750244,285.682556 
	C169.203201,286.343536 169.178986,287.348145 169.664322,287.967560 
	C173.769302,293.206726 177.953491,298.383728 182.088776,303.599274 
	C184.800323,307.019196 187.470245,310.472076 190.496246,313.955597 
	C190.889038,323.292023 190.842178,332.585571 191.071548,341.872314 
	C191.128967,344.197083 189.939850,346.657745 193.386642,348.806763 
	C195.033020,349.833221 193.949677,355.237885 194.102737,358.659454 
	C193.631470,358.884674 193.160202,359.109863 192.688919,359.335083 
	C191.886017,358.134460 191.083115,356.933838 189.781754,354.987885 
	C186.153778,354.987885 181.537842,354.987885 176.413147,354.558807 
	C172.345322,348.656555 168.962906,343.057617 165.179977,337.743805 
	C160.981308,331.845917 156.202545,326.357239 152.075638,320.413177 
	C148.354874,315.054108 145.395279,309.167755 141.693390,303.794006 
	C137.818771,298.169495 133.331116,292.971039 129.345337,287.418427 
	C124.606140,280.816162 122.031410,272.684387 115.155556,267.567993 
	C114.170631,266.835114 113.641434,265.461975 112.966026,264.346008 
	C110.518173,260.301483 108.323349,256.082642 105.620964,252.217682 
	C99.702538,243.753174 93.451950,235.521622 87.484291,227.090668 
	C79.728912,216.134079 72.074776,205.104996 64.462135,194.048553 
	C61.148510,189.235901 58.241158,184.134766 54.788929,179.429016 
	C51.849792,175.422668 48.393982,171.795380 45.166752,168.000381 
z"/>
<path fill="#EBFFF6" opacity="1.000000" stroke="none" 
	d="
M411.998291,642.460693 
	C395.640778,642.885254 379.283112,642.936951 362.415222,642.560791 
	C358.847931,636.843567 356.420624,631.034607 352.586334,626.386169 
	C346.815796,619.390442 341.187256,612.453003 336.723999,604.477295 
	C333.730530,599.128052 329.413605,594.526306 325.761597,589.536865 
	C321.052795,583.103699 315.530731,577.057617 312.031128,570.013916 
	C309.260712,564.437927 305.880310,560.069763 301.074005,556.470398 
	C300.597565,556.113586 300.470795,555.318909 300.107941,554.776917 
	C295.468628,547.846191 290.815826,540.924622 286.166443,534.000671 
	C286.111511,515.261108 286.052338,496.521545 286.016357,477.781952 
	C286.014832,476.980347 286.078003,475.538727 286.363708,475.471649 
	C291.320953,474.308105 288.058960,470.363464 289.090668,467.446564 
	C290.428711,467.966736 291.997772,468.705811 292.903168,469.934113 
	C298.558289,477.606140 304.172546,485.313507 309.578369,493.162048 
	C312.537872,497.458832 315.018829,502.082703 317.802765,506.504150 
	C319.033508,508.458740 320.401642,510.340271 321.845184,512.144714 
	C325.296753,516.459351 329.135376,520.499817 332.241791,525.044678 
	C335.159943,529.314087 337.276794,534.124695 339.884949,538.616638 
	C340.606079,539.858582 341.900299,540.752808 342.795898,541.911438 
	C345.037750,544.811768 347.302063,547.703552 349.371002,550.726318 
	C351.773315,554.236145 353.905670,557.930176 356.285980,561.455933 
	C358.849701,565.253235 361.196228,569.292358 364.294342,572.613098 
	C369.939087,578.663330 374.454102,585.309204 378.049561,592.760376 
	C379.620514,596.015869 382.580261,598.582642 384.782410,601.556152 
	C389.044098,607.310669 393.247131,613.109436 397.414124,618.933044 
	C400.294006,622.957886 403.207947,626.969299 405.854889,631.146301 
	C408.090576,634.674377 409.964203,638.431885 411.998291,642.460693 
z"/>
<path fill="#EEFFFE" opacity="1.000000" stroke="none" 
	d="
M88.998726,358.833191 
	C66.195564,358.833191 43.392406,358.833191 20.207361,358.833191 
	C20.067152,357.623871 19.926960,356.414703 19.763025,355.000763 
	C17.014696,355.000763 14.538703,355.002625 12.062714,355.000397 
	C6.328406,354.995239 4.003077,352.747192 4.000743,347.182770 
	C3.995713,335.187012 3.950754,323.190796 4.057268,311.195984 
	C4.071427,309.601501 2.666949,306.903900 6.269542,306.799835 
	C6.541874,306.791992 6.955417,304.813751 6.966524,303.747925 
	C7.032490,297.417480 6.693189,291.065002 7.126684,284.763702 
	C7.347525,281.553589 4.961740,277.776367 9.634886,274.905243 
	C11.149548,273.974640 9.655066,268.595642 10.087669,265.324219 
	C10.495869,262.237427 7.821777,258.182465 12.789773,256.140228 
	C13.469807,255.860672 12.968149,252.706497 13.435575,250.493500 
	C16.802450,253.926575 19.832773,257.687164 22.672991,261.586243 
	C27.370914,268.035583 31.943064,274.576477 36.576546,281.072906 
	C37.337391,282.139618 38.258766,283.108643 38.903900,284.238220 
	C41.482185,288.752472 43.822376,293.410400 46.557285,297.825165 
	C48.878498,301.572144 50.881569,306.234528 54.336422,308.406677 
	C60.905796,312.537018 61.998260,320.059570 66.743774,325.248840 
	C71.439705,330.383881 74.849449,336.683868 78.928650,342.397736 
	C82.067055,346.793762 85.440582,351.023041 88.533852,355.449219 
	C89.114342,356.279846 88.865089,357.690308 88.998726,358.833191 
z"/>
<path fill="#EDFFFB" opacity="1.000000" stroke="none" 
	d="
M89.461761,358.910828 
	C88.865089,357.690308 89.114342,356.279846 88.533852,355.449219 
	C85.440582,351.023041 82.067055,346.793762 78.928650,342.397736 
	C74.849449,336.683868 71.439705,330.383881 66.743774,325.248840 
	C61.998260,320.059570 60.905796,312.537018 54.336422,308.406677 
	C50.881569,306.234528 48.878498,301.572144 46.557285,297.825165 
	C43.822376,293.410400 41.482185,288.752472 38.903900,284.238220 
	C38.258766,283.108643 37.337391,282.139618 36.576546,281.072906 
	C31.943064,274.576477 27.370914,268.035583 22.672991,261.586243 
	C19.832773,257.687164 16.802450,253.926575 13.512171,250.052567 
	C13.744112,246.620956 10.973295,242.669556 15.770437,239.846359 
	C16.996908,239.124573 15.954508,234.547546 15.954508,231.433884 
	C17.226862,231.189316 18.420261,230.959915 20.000435,230.656174 
	C20.000435,228.884872 19.743700,227.053467 20.087933,225.342987 
	C20.329775,224.141266 21.389978,223.104263 22.669046,222.257645 
	C25.229548,225.574707 27.102276,228.701172 29.203480,231.665680 
	C33.586262,237.849213 38.119064,243.926193 42.536491,250.085480 
	C48.443886,258.322266 52.254845,268.049622 60.240570,274.825470 
	C61.330982,275.750671 61.967319,277.231934 62.749763,278.495453 
	C65.795128,283.413330 68.777443,288.370605 71.857361,293.266571 
	C73.791557,296.341248 75.787201,299.382629 77.879196,302.351624 
	C82.604782,309.058289 87.431114,315.693939 92.170288,322.391144 
	C95.455925,327.034271 98.702759,331.705872 101.898880,336.411011 
	C106.962128,343.864868 111.968422,351.357391 116.998810,358.833557 
	C107.974144,358.885193 98.949478,358.936829 89.461761,358.910828 
z"/>
<path fill="#ECFFF9" opacity="1.000000" stroke="none" 
	d="
M117.461853,358.911011 
	C111.968422,351.357391 106.962128,343.864868 101.898880,336.411011 
	C98.702759,331.705872 95.455925,327.034271 92.170288,322.391144 
	C87.431114,315.693939 82.604782,309.058289 77.879196,302.351624 
	C75.787201,299.382629 73.791557,296.341248 71.857361,293.266571 
	C68.777443,288.370605 65.795128,283.413330 62.749763,278.495453 
	C61.967319,277.231934 61.330982,275.750671 60.240570,274.825470 
	C52.254845,268.049622 48.443886,258.322266 42.536491,250.085480 
	C38.119064,243.926193 33.586262,237.849213 29.203480,231.665680 
	C27.102276,228.701172 25.229548,225.574707 23.102848,222.206543 
	C23.798679,218.572418 20.808977,214.079468 25.952095,212.060104 
	C26.014553,212.035583 25.992743,211.746674 25.978539,211.583939 
	C25.632465,207.619781 25.778992,203.796234 29.430435,200.469147 
	C33.531841,204.826141 37.363640,209.451111 40.856930,214.318985 
	C44.356655,219.195831 47.459480,224.355377 50.843540,229.317871 
	C54.874748,235.229340 58.990738,241.083740 63.124565,246.924240 
	C67.070419,252.499146 71.042305,258.056824 75.086052,263.560883 
	C78.095230,267.656799 81.477684,271.497742 84.254471,275.739838 
	C87.183311,280.214233 89.271599,285.249084 92.293633,289.650085 
	C98.226807,298.290619 104.548615,306.664429 110.718018,315.142517 
	C113.675323,319.206512 116.733482,323.199768 119.599991,327.326447 
	C123.707413,333.239594 127.673996,339.250427 131.714508,345.210236 
	C134.798264,349.758789 137.903427,354.292816 140.999084,358.833313 
	C133.307678,358.885040 125.616295,358.936768 117.461853,358.911011 
z"/>
<path fill="#ECFFF8" opacity="1.000000" stroke="none" 
	d="
M141.458237,358.910583 
	C137.903427,354.292816 134.798264,349.758789 131.714508,345.210236 
	C127.673996,339.250427 123.707413,333.239594 119.599991,327.326447 
	C116.733482,323.199768 113.675323,319.206512 110.718018,315.142517 
	C104.548615,306.664429 98.226807,298.290619 92.293633,289.650085 
	C89.271599,285.249084 87.183311,280.214233 84.254471,275.739838 
	C81.477684,271.497742 78.095230,267.656799 75.086052,263.560883 
	C71.042305,258.056824 67.070419,252.499146 63.124565,246.924240 
	C58.990738,241.083740 54.874748,235.229340 50.843540,229.317871 
	C47.459480,224.355377 44.356655,219.195831 40.856930,214.318985 
	C37.363640,209.451111 33.531841,204.826141 29.507565,200.047806 
	C29.241226,199.097244 29.259125,197.413879 29.398584,197.403732 
	C33.007702,197.141541 31.554382,194.375824 32.109650,192.501648 
	C32.432457,191.412048 33.848423,190.646332 35.311882,189.414459 
	C37.881592,190.907547 40.336201,192.423767 41.856995,194.594254 
	C45.402512,199.654449 48.282398,205.181656 51.837101,210.234650 
	C55.490395,215.427780 59.732452,220.202942 63.509045,225.314545 
	C65.835159,228.462967 67.697823,231.949448 69.904549,235.191605 
	C72.164040,238.511276 74.546173,241.750702 76.967163,244.955353 
	C77.746071,245.986389 79.081192,246.643692 79.711090,247.732712 
	C82.255547,252.131775 84.471764,256.724884 87.103577,261.067963 
	C89.393166,264.846252 91.955719,268.477356 94.617577,272.007690 
	C98.937584,277.737213 103.557220,283.242401 107.828033,289.007019 
	C112.206940,294.917542 116.293404,301.044006 120.568878,307.032410 
	C121.431038,308.239960 123.016045,309.084320 123.501297,310.382629 
	C126.128174,317.410767 130.185852,323.386841 135.767410,328.379547 
	C136.337418,328.889404 136.522186,329.812561 136.942795,330.509552 
	C139.972137,335.529358 142.932678,340.593475 146.080261,345.538330 
	C148.945068,350.038910 152.018127,354.406952 154.999390,358.833405 
	C150.638718,358.884888 146.278061,358.936340 141.458237,358.910583 
z"/>
<path fill="#ECFFF8" opacity="1.000000" stroke="none" 
	d="
M286.089905,534.463745 
	C290.815826,540.924622 295.468628,547.846191 300.107941,554.776917 
	C300.470795,555.318909 300.597565,556.113586 301.074005,556.470398 
	C305.880310,560.069763 309.260712,564.437927 312.031128,570.013916 
	C315.530731,577.057617 321.052795,583.103699 325.761597,589.536865 
	C329.413605,594.526306 333.730530,599.128052 336.723999,604.477295 
	C341.187256,612.453003 346.815796,619.390442 352.586334,626.386169 
	C356.420624,631.034607 358.847931,636.843567 361.952209,642.483276 
	C354.641632,642.884888 347.283844,642.936218 339.419250,642.576782 
	C335.658813,637.653503 332.326904,633.194885 329.171265,628.614807 
	C325.190674,622.837463 321.387695,616.938110 317.444336,611.134705 
	C314.306915,606.517395 311.133301,601.922241 307.867401,597.395386 
	C304.187531,592.294739 300.250275,587.375610 296.676880,582.203491 
	C293.245636,577.237122 290.136688,572.048096 286.886078,566.956909 
	C286.590790,564.066223 286.083832,561.178589 286.041016,558.284180 
	C285.925842,550.499939 286.008942,542.712830 286.089905,534.463745 
z"/>
<path fill="#ECFFF6" opacity="1.000000" stroke="none" 
	d="
M45.089828,168.418579 
	C48.393982,171.795380 51.849792,175.422668 54.788929,179.429016 
	C58.241158,184.134766 61.148510,189.235901 64.462135,194.048553 
	C72.074776,205.104996 79.728912,216.134079 87.484291,227.090668 
	C93.451950,235.521622 99.702538,243.753174 105.620964,252.217682 
	C108.323349,256.082642 110.518173,260.301483 112.966026,264.346008 
	C113.641434,265.461975 114.170631,266.835114 115.155556,267.567993 
	C122.031410,272.684387 124.606140,280.816162 129.345337,287.418427 
	C133.331116,292.971039 137.818771,298.169495 141.693390,303.794006 
	C145.395279,309.167755 148.354874,315.054108 152.075638,320.413177 
	C156.202545,326.357239 160.981308,331.845917 165.179977,337.743805 
	C168.962906,343.057617 172.345322,348.656555 175.951508,354.481445 
	C175.494110,356.086273 174.989563,357.339386 174.326141,358.987091 
	C172.432068,358.987091 170.156219,358.987091 167.439423,358.531311 
	C166.245056,356.108276 165.833969,353.907806 164.679672,352.213745 
	C159.328461,344.360168 153.793198,336.631409 148.281952,328.887756 
	C141.314865,319.098572 134.234207,309.389313 127.352371,299.540863 
	C124.527679,295.498474 122.275681,291.054749 119.434525,287.025330 
	C116.236946,282.490417 112.581459,278.281403 109.280754,273.815613 
	C103.487854,265.977936 97.613174,258.188843 92.136406,250.132187 
	C83.920959,238.046799 76.129776,225.673462 67.949066,213.563858 
	C61.612423,204.183975 54.843227,195.096451 48.499329,185.721268 
	C46.132561,182.223602 43.412449,179.669983 39.166615,178.999954 
	C40.832851,177.799530 42.444122,176.936264 42.209621,174.119659 
	C42.070454,172.448074 44.008705,170.603546 45.089828,168.418579 
z"/>
<path fill="#ECFFF7" opacity="1.000000" stroke="none" 
	d="
M155.448212,358.910370 
	C152.018127,354.406952 148.945068,350.038910 146.080261,345.538330 
	C142.932678,340.593475 139.972137,335.529358 136.942795,330.509552 
	C136.522186,329.812561 136.337418,328.889404 135.767410,328.379547 
	C130.185852,323.386841 126.128174,317.410767 123.501297,310.382629 
	C123.016045,309.084320 121.431038,308.239960 120.568878,307.032410 
	C116.293404,301.044006 112.206940,294.917542 107.828033,289.007019 
	C103.557220,283.242401 98.937584,277.737213 94.617577,272.007690 
	C91.955719,268.477356 89.393166,264.846252 87.103577,261.067963 
	C84.471764,256.724884 82.255547,252.131775 79.711090,247.732712 
	C79.081192,246.643692 77.746071,245.986389 76.967163,244.955353 
	C74.546173,241.750702 72.164040,238.511276 69.904549,235.191605 
	C67.697823,231.949448 65.835159,228.462967 63.509045,225.314545 
	C59.732452,220.202942 55.490395,215.427780 51.837101,210.234650 
	C48.282398,205.181656 45.402512,199.654449 41.856995,194.594254 
	C40.336201,192.423767 37.881592,190.907547 35.508911,189.047333 
	C35.111439,187.078201 34.720612,185.078049 35.140450,183.265656 
	C35.355782,182.336105 37.019451,181.742081 38.778069,181.111298 
	C41.113010,182.412125 43.085827,183.309921 44.218563,184.832642 
	C49.884907,192.449860 55.357628,200.212067 60.840923,207.963974 
	C62.918606,210.901276 65.803070,213.710876 66.613174,216.999115 
	C67.861649,222.066833 71.338120,224.813049 74.769592,227.896637 
	C75.489922,228.543945 76.329742,229.150116 76.812363,229.956146 
	C82.782539,239.926849 87.802460,250.534210 96.385033,258.737183 
	C97.331200,259.641479 98.113457,260.756287 98.812759,261.873016 
	C101.763657,266.585327 104.614380,271.360565 107.580971,276.062805 
	C109.582047,279.234680 111.628387,282.385284 113.808212,285.435547 
	C118.153702,291.516205 122.668785,297.475952 126.993027,303.571381 
	C130.626892,308.693634 134.061005,313.957123 137.638763,319.119843 
	C139.683228,322.069977 141.827911,324.951019 143.945557,327.849976 
	C147.233643,332.351135 150.496078,336.871887 153.845581,341.327057 
	C157.293945,345.913696 160.914520,350.373413 164.266312,355.027985 
	C164.951294,355.979218 164.777542,357.548828 164.999619,358.833374 
	C161.965424,358.884705 158.931229,358.936035 155.448212,358.910370 
z"/>
<path fill="#ECFFF9" opacity="1.000000" stroke="none" 
	d="
M286.510071,567.175842 
	C290.136688,572.048096 293.245636,577.237122 296.676880,582.203491 
	C300.250275,587.375610 304.187531,592.294739 307.867401,597.395386 
	C311.133301,601.922241 314.306915,606.517395 317.444336,611.134705 
	C321.387695,616.938110 325.190674,622.837463 329.171265,628.614807 
	C332.326904,633.194885 335.658813,637.653503 338.956268,642.499634 
	C335.635162,642.884766 332.270264,642.936157 328.445496,642.545959 
	C327.251526,640.272278 326.842926,638.206604 325.725525,636.649536 
	C321.432495,630.667297 316.928986,624.835266 312.470581,618.972595 
	C309.710419,615.343018 306.675903,611.901855 304.154724,608.116211 
	C301.431793,604.027588 299.419556,599.459167 296.629486,595.423462 
	C293.408600,590.764587 289.676666,586.459045 286.166595,582.000061 
	C286.155762,577.131653 286.144928,572.263184 286.510071,567.175842 
z"/>
<path fill="#ECFFF7" opacity="1.000000" stroke="none" 
	d="
M165.330109,358.909851 
	C164.777542,357.548828 164.951294,355.979218 164.266312,355.027985 
	C160.914520,350.373413 157.293945,345.913696 153.845581,341.327057 
	C150.496078,336.871887 147.233643,332.351135 143.945557,327.849976 
	C141.827911,324.951019 139.683228,322.069977 137.638763,319.119843 
	C134.061005,313.957123 130.626892,308.693634 126.993027,303.571381 
	C122.668785,297.475952 118.153702,291.516205 113.808212,285.435547 
	C111.628387,282.385284 109.582047,279.234680 107.580971,276.062805 
	C104.614380,271.360565 101.763657,266.585327 98.812759,261.873016 
	C98.113457,260.756287 97.331200,259.641479 96.385033,258.737183 
	C87.802460,250.534210 82.782539,239.926849 76.812363,229.956146 
	C76.329742,229.150116 75.489922,228.543945 74.769592,227.896637 
	C71.338120,224.813049 67.861649,222.066833 66.613174,216.999115 
	C65.803070,213.710876 62.918606,210.901276 60.840923,207.963974 
	C55.357628,200.212067 49.884907,192.449860 44.218563,184.832642 
	C43.085827,183.309921 41.113010,182.412125 39.209419,181.089294 
	C38.931637,180.515381 38.971985,180.078339 39.089474,179.320618 
	C43.412449,179.669983 46.132561,182.223602 48.499329,185.721268 
	C54.843227,195.096451 61.612423,204.183975 67.949066,213.563858 
	C76.129776,225.673462 83.920959,238.046799 92.136406,250.132187 
	C97.613174,258.188843 103.487854,265.977936 109.280754,273.815613 
	C112.581459,278.281403 116.236946,282.490417 119.434525,287.025330 
	C122.275681,291.054749 124.527679,295.498474 127.352371,299.540863 
	C134.234207,309.389313 141.314865,319.098572 148.281952,328.887756 
	C153.793198,336.631409 159.328461,344.360168 164.679672,352.213745 
	C165.833969,353.907806 166.245056,356.108276 166.999268,358.454498 
	C166.553589,358.884430 166.107101,358.935364 165.330109,358.909851 
z"/>
<path fill="#ECFFFA" opacity="1.000000" stroke="none" 
	d="
M286.089691,582.459229 
	C289.676666,586.459045 293.408600,590.764587 296.629486,595.423462 
	C299.419556,599.459167 301.431793,604.027588 304.154724,608.116211 
	C306.675903,611.901855 309.710419,615.343018 312.470581,618.972595 
	C316.928986,624.835266 321.432495,630.667297 325.725525,636.649536 
	C326.842926,638.206604 327.251526,640.272278 327.992859,642.468872 
	C324.437592,642.623413 320.875061,642.413330 316.695923,642.157227 
	C315.719513,641.740784 315.359772,641.370361 315.163269,640.909912 
	C315.217682,640.546509 315.108856,640.273254 314.782593,639.889648 
	C314.294342,639.579346 314.105957,639.319580 314.260559,638.783447 
	C314.324829,637.516785 314.412964,636.288757 313.885529,635.445801 
	C310.813782,630.536621 307.638031,625.690796 304.420898,620.874695 
	C299.097565,612.905518 293.737366,604.960510 288.314941,597.058716 
	C287.921021,596.484619 286.897461,596.342651 286.166626,595.999817 
	C286.115326,591.639343 286.064056,587.278809 286.089691,582.459229 
z"/>
<path fill="#EDFFFB" opacity="1.000000" stroke="none" 
	d="
M315.000000,641.000000 
	C315.359772,641.370361 315.719513,641.740784 316.379883,642.370911 
	C313.398041,642.404236 309.380646,645.274231 307.169952,640.165588 
	C306.922211,639.593079 304.358826,640.022644 302.427185,639.544678 
	C301.946167,638.777405 302.009094,638.390076 301.853424,638.137573 
	C297.790497,631.545471 293.772430,624.923096 289.541260,618.440125 
	C288.985535,617.588562 287.318787,617.462097 286.166595,616.999817 
	C286.115265,612.971802 286.063904,608.943726 286.443726,604.457886 
	C287.583252,604.000000 288.291626,604.000000 289.108215,604.258423 
	C289.477600,605.011169 289.738800,605.505615 290.035919,606.342712 
	C291.381226,607.790283 292.690613,608.895142 294.000000,610.250000 
	C294.000000,610.500000 294.000000,611.000000 294.036011,611.339478 
	C295.048004,612.452698 296.023987,613.226379 297.037659,614.352417 
	C298.050232,616.469849 299.025116,618.234924 300.036011,620.339478 
	C301.048004,621.452698 302.024017,622.226318 303.000000,623.333313 
	C303.000000,624.111084 303.000000,624.555542 303.004639,625.364990 
	C304.339539,627.153320 305.669769,628.576660 307.036011,630.339478 
	C308.048035,631.452637 309.024017,632.226318 310.036011,633.348328 
	C310.714661,635.131104 311.357330,636.565552 312.036011,638.339478 
	C313.048004,639.452698 314.024017,640.226318 315.000000,641.000000 
z"/>
<path fill="#EDFFFB" opacity="1.000000" stroke="none" 
	d="
M286.089661,617.452148 
	C287.318787,617.462097 288.985535,617.588562 289.541260,618.440125 
	C293.772430,624.923096 297.790497,631.545471 301.853424,638.137573 
	C302.009094,638.390076 301.946167,638.777405 301.992676,639.467651 
	C297.887177,639.833374 293.774139,639.833374 288.999573,639.833374 
	C288.999573,637.493896 289.235748,635.062317 288.929871,632.700867 
	C288.651337,630.550415 290.546051,627.775024 286.561890,626.309448 
	C285.492920,625.916260 286.148682,620.834106 286.089661,617.452148 
z"/>
<path fill="#ECFFFA" opacity="1.000000" stroke="none" 
	d="
M303.000000,625.000000 
	C303.000000,624.555542 303.000000,624.111084 302.963989,622.993774 
	C301.951996,621.547302 300.975983,620.773682 300.000000,620.000000 
	C299.025116,618.234924 298.050232,616.469849 297.001648,614.012878 
	C295.951996,612.547302 294.976013,611.773621 294.000000,611.000000 
	C294.000000,611.000000 294.000000,610.500000 293.964081,609.907288 
	C292.618774,608.209717 291.309387,607.104858 290.000000,606.000000 
	C289.738800,605.505615 289.477600,605.011169 289.075775,603.921021 
	C288.012268,602.216858 287.089386,601.108459 286.166443,600.000000 
	C286.115204,598.930298 286.063965,597.860657 286.089661,596.395386 
	C286.897461,596.342651 287.921021,596.484619 288.314941,597.058716 
	C293.737366,604.960510 299.097565,612.905518 304.420898,620.874695 
	C307.638031,625.690796 310.813782,630.536621 313.885529,635.445801 
	C314.412964,636.288757 314.324829,637.516785 314.090637,638.541016 
	C313.106812,638.343384 312.553406,638.171753 312.000000,638.000000 
	C311.357330,636.565552 310.714661,635.131104 310.000000,633.008789 
	C308.951996,631.547302 307.975983,630.773682 306.963806,629.648315 
	C305.618408,627.864380 304.309204,626.432190 303.000000,625.000000 
z"/>
<path fill="#EDFFFA" opacity="1.000000" stroke="none" 
	d="
M286.089539,600.395630 
	C287.089386,601.108459 288.012268,602.216858 288.967590,603.662659 
	C288.291626,604.000000 287.583252,604.000000 286.520691,604.000244 
	C286.115204,602.930725 286.063904,601.860962 286.089539,600.395630 
z"/>
<path fill="#EDFFFA" opacity="1.000000" stroke="none" 
	d="
M312.036011,638.339539 
	C312.553406,638.171753 313.106812,638.343384 313.830109,638.757568 
	C314.105957,639.319580 314.294342,639.579346 314.782593,640.139648 
	C315.000000,640.500000 315.000000,641.000000 315.000000,641.000000 
	C314.024017,640.226318 313.048004,639.452698 312.036011,638.339539 
z"/>
<path fill="#EDFFFB" opacity="1.000000" stroke="none" 
	d="
M315.163269,640.909912 
	C315.000000,641.000000 315.000000,640.500000 315.000000,640.250000 
	C315.108856,640.273254 315.217682,640.546509 315.163269,640.909912 
z"/>
<path fill="#EDFFFA" opacity="1.000000" stroke="none" 
	d="
M303.004639,625.364990 
	C304.309204,626.432190 305.618408,627.864380 306.963806,629.648315 
	C305.669769,628.576660 304.339539,627.153320 303.004639,625.364990 
z"/>
<path fill="#EDFFFA" opacity="1.000000" stroke="none" 
	d="
M290.035919,606.342712 
	C291.309387,607.104858 292.618774,608.209717 293.964081,609.657288 
	C292.690613,608.895142 291.381226,607.790283 290.035919,606.342712 
z"/>
<path fill="#EDFFFA" opacity="1.000000" stroke="none" 
	d="
M300.036011,620.339478 
	C300.975983,620.773682 301.951996,621.547302 302.963989,622.660522 
	C302.024017,622.226318 301.048004,621.452698 300.036011,620.339478 
z"/>
<path fill="#EDFFFA" opacity="1.000000" stroke="none" 
	d="
M294.036011,611.339478 
	C294.976013,611.773621 295.951996,612.547302 296.963989,613.660522 
	C296.023987,613.226379 295.048004,612.452698 294.036011,611.339478 
z"/>
<path fill="#EDFFFA" opacity="1.000000" stroke="none" 
	d="
M307.036011,630.339478 
	C307.975983,630.773682 308.951996,631.547302 309.963989,632.660522 
	C309.024017,632.226318 308.048035,631.452637 307.036011,630.339478 
z"/>
</svg>